# vtk DataFile Version 3.0
d-2__ created by libgimli-v1.2.4
ASCII
DATASET UNSTRUCTURED_GRID
POINTS 797 double
-2	0	0
-2	-6	0
27	-6	0
27	0	0
-102	0	0
-102	-106	0
127	0	0
127	-106	0
0	0	0
0.1	0	0
0.9	0	0
1	0	0
1.1	0	0
1.9	0	0
2	0	0
2.1	0	0
2.9	0	0
3	0	0
3.1	0	0
3.9	0	0
4	0	0
4.1	0	0
4.9	0	0
5	0	0
5.1	0	0
5.9	0	0
6	0	0
6.1	0	0
6.9	0	0
7	0	0
7.1	0	0
7.9	0	0
8	0	0
8.1	0	0
8.9	0	0
9	0	0
9.1	0	0
9.9	0	0
10	0	0
10.1	0	0
10.9	0	0
11	0	0
11.1	0	0
11.9	0	0
12	0	0
12.1	0	0
12.9	0	0
13	0	0
13.1	0	0
13.9	0	0
14	0	0
14.1	0	0
14.9	0	0
15	0	0
15.1	0	0
15.9	0	0
16	0	0
16.1	0	0
16.9	0	0
17	0	0
17.1	0	0
17.9	0	0
18	0	0
18.1	0	0
18.9	0	0
19	0	0
19.1	0	0
19.9	0	0
20	0	0
20.1	0	0
20.9	0	0
21	0	0
21.1	0	0
21.9	0	0
22	0	0
22.1	0	0
22.9	0	0
23	0	0
23.1	0	0
23.9	0	0
24	0	0
24.1	0	0
24.9	0	0
25	0	0
12.5	-6	0
0.11389744448986	-0.31965010172755	0
12.063335038718	-0.24211297016872	0
1.9252292405947	-0.19180282670637	0
4.073836154229	-0.12369842890849	0
4.8670285197232	-0.34844495528269	0
7.9477365794796	-0.19439310782236	0
9.9347842562744	-0.17457802733617	0
13.933858866811	-0.17667429052769	0
15.07489079192	-0.22153481283123	0
16.936828381653	-0.18258936588198	0
19.864552730714	-0.34752174923266	0
19.053196420905	-0.14920528580377	0
23.086056115929	-0.22730272532304	0
24.966751823726	-0.26245228778817	0
0.93942796516183	-0.18604232836408	0
11.919083469466	-0.14978491610807	0
11.055195517838	-0.17683431048799	0
12.931527149931	-0.21620825924508	0
2.9473634291625	-0.21250420760606	0
2.0656610063795	-0.13319513221721	0
3.9345427353507	-0.1759088892101	0
4.3735126762664	-0.19331876644669	0
6.9129876575082	-0.1925848818831	0
4.1377575372921	-0.32049720673632	0
8.9357295241597	-0.17519321451805	0
8.0801528086253	-0.12807599341295	0
10.075419753679	-0.12016305774488	0
14.072937919717	-0.1228482806332	0
14.922821281663	-0.14530256275025	0
15.922131705181	-0.21473745885256	0
17.076469171858	-0.12496058195785	0
19.935572957103	-0.13011299777068	0
18.052753486491	-0.19437527738398	0
18.648656230722	-0.20377500781697	0
21.941902682159	-0.20157816676329	0
21.056666120438	-0.12321687818798	0
23.921737331291	-0.20620265534298	0
22.929670389574	-0.15105415994929	0
1.0728788192844	-0.12641054412906	0
10.918903265173	-0.12118351436815	0
13.073877669721	-0.13877259752442	0
3.0816986597524	-0.13461281346463	0
4.7	0	0
7.0612177358652	-0.13872581916839	0
9.0719174398829	-0.12129923257206	0
16.068320761731	-0.13998099979524	0
17.915168948607	-0.12770628911503	0
19.7	0	0
22.078412326953	-0.13508083951427	0
24.064954396984	-0.13696122489205	0
11.844195894419	-0.35519566661418	0
2.1034348208047	-0.32676936715966	0
4.5	0	0
7.8428440219759	-0.52630188035775	0
3.784617367311	-0.44582742446348	0
8.1429762234366	-0.31017122743283	0
10.142894967628	-0.30499375963674	0
14.132286512483	-0.31303625580439	0
17.5	0	0
19.5	0	0
21.474638169641	-0.51334701668969	0
20.833884430244	-0.16203308349704	0
22.858765107918	-0.38428850428962	0
1.5	0	0
13.5	0	0
3.5	0	0
7.5	0	0
9.5	0	0
16.116478746724	-0.3398955768804	0
20.5	0	0
24.106968472226	-0.33270354229347	0
11.5	0	0
2.5	0	0
1.12334127127	-0.30819400322574	0
4.3	0	0
3.1470646258656	-0.32403554134979	0
5.5	0	0
4.8050614936519	-0.13514488896728	0
8.5	0	0
7.0979817829823	-0.34616967425816	0
10.841363365998	-0.30705014726548	0
10.5	0	0
9.1223465935703	-0.29879754791535	0
14.839512792342	-0.36492831503806	0
14.5	0	0
13.129277857598	-0.33387847632389	0
17.3	0	0
17.7	0	0
19.3	0	0
21.5	0	0
21.069591586227	-0.38720749741537	0
22.5	0	0
22.147984069816	-0.34224870760497	0
16.5	0	0
24.5	0	0
11.7	0	0
2.3	0	0
1.3	0	0
3.3	0	0
5.7	0	0
5.3	0	0
8.3	0	0
7.3	0	0
10.7	0	0
10.3	0	0
9.3	0	0
14.7	0	0
14.3	0	0
13.3	0	0
17.145233986461	-0.31835188156301	0
20.7	0	0
21.3	0	0
20.3	0	0
22.7	0	0
22.3	0	0
16.3	0	0
24.3	0	0
-1	0	0
12.5	0	0
15.5	0	0
18.5	0	0
26	0	0
0.5	0	0
6.5	0	0
23.5	0	0
6.6877045246437	-0.18336573837552	0
18.340979893946	-0.24057178047906	0
1.7030776445794	-0.189970752411	0
13.709156162665	-0.17523184753557	0
3.7104739960232	-0.17238062737858	0
7.7216832036555	-0.20245144547341	0
9.7068441747863	-0.17356556764155	0
17.829608562809	-0.31958596292023	0
11.280335691676	-0.17786420075538	0
2.7192108525953	-0.21948840855533	0
8.7146300946917	-0.17518592885068	0
21.67703342458	-0.23664959272623	0
16.70946411628	-0.18270530189119	0
24.708795670368	-0.22266197851992	0
-0.5	0	0
12.379965783877	-0.2880761231661	0
12.699144154514	-0.22163433742566	0
15.386126538002	-0.264826682339	0
15.692372089078	-0.21515233171645	0
18.885678977727	-0.21666733738175	0
20.977418273943	-0.2391882160407	0
25.5	0	0
0.43952533035219	-0.27815538882685	0
0.7200257689993	-0.19102560720041	0
4.1970084089066	-0.12732331661096	0
5.25	-6	0
23.395811931674	-0.26180871325791	0
23.696015538934	-0.20654280176944	0
-0.2000347049745	-0.33657785214537	0
25.255521679544	-0.26048135332292	0
5.114169978527	-0.17059901506475	0
6.3944428666501	-0.23668498827077	0
17.199438042974	-0.12533540412917	0
17.374952068535	-0.18413776493045	0
17.791992785561	-0.12619528836702	0
17.614468156068	-0.18450181810129	0
19.096184228864	-0.38549365439619	0
21.109663592868	-0.24695877991748	0
11.784549906414	-0.15259382636114	0
11.557474557461	-0.2582556604345	0
2.1968620936808	-0.1488194100206	0
2.4135047204111	-0.28520827447508	0
1.2020186009878	-0.13806510689769	0
1.4135427690103	-0.25580298039083	0
3.2124302613086	-0.1398140699774	0
3.4326109137978	-0.24257259606892	0
5.8137423854046	-0.14203051561079	0
5.643377542806	-0.20499312281321	0
5.8877920529826	-0.36367564732797	0
2.8318868492863	-0.60262103239702	0
8.2108259221218	-0.13645522850972	0
8.4314664112658	-0.24433969097183	0
7.1954213793634	-0.15528489921531	0
7.4181145626507	-0.29161822638862	0
10.795648883637	-0.12134237708851	0
10.616903570603	-0.17806406886785	0
10.198703557889	-0.12063395314547	0
10.374621563112	-0.17763447261461	0
9.202120406608	-0.13300897085162	0
9.4165698763234	-0.24504649734869	0
14.795150077527	-0.14156640864739	0
14.610948002959	-0.19823528965745	0
14.194841144704	-0.12482149409529	0
14.366813910636	-0.18847240985952	0
13.206158761767	-0.14454719605853	0
13.425918899109	-0.25038366536878	0
21.201578057922	-0.1516288278691	0
20.95353358718	-0.10480847972501	0
19.183023494461	-0.14944488083865	0
21.399527711236	-0.20597362379087	0
22.801758018651	-0.14872178362571	0
22.619322736377	-0.21093211567693	0
22.200412238559	-0.13565529850447	0
22.374644149416	-0.2032728514952	0
16.201347488389	-0.14779220927582	0
16.421125461638	-0.26049716474369	0
24.196243069821	-0.14909320105228	0
24.409596381547	-0.27746986518175	0
5.4033934164022	-0.9088930586841	0
18.615116666684	-0.56709208931474	0
1.7744963990796	-0.50241272578686	0
13.78177545307	-0.44933092553976	0
5.3891812026486	-0.22737734626492	0
6.095572806941	-0.21325820915115	0
9.7827685103267	-0.4477612007648	0
17.489430196306	-0.47871286023373	0
11.185277711042	-0.45384629071061	0
4.9372032572689	-0.13068181903822	0
8.8067240309154	-0.45661638636473	0
21.244256328253	-0.33637942332188	0
16.788136021888	-0.47296053390152	0
12.12973881967	-0.6608639200502	0
12.781375987768	-0.60396347192495	0
15.192144765224	-0.5578985627527	0
15.751249062161	-0.59805560887088	0
21.844679048589	-0.50343631839342	0
19.804237818444	-0.13675527362201	0
0.82208895547239	-0.49056441084386	0
5.207493703415	-0.4921920683181	0
6.7317789741792	-0.48802641840622	0
23.228949482258	-0.57678657171733	0
23.76199515072	-0.56800995291949	0
19.365466064346	-0.21490594912175	0
2.2388374327269	-0.70119836318481	0
10.487853166769	-0.46128423534722	0
14.458751962285	-0.49525645263892	0
19.75	-6	0
24.768548281021	-0.57590805634246	0
0.38367613173079	-0.66651868425177	0
-2	-2	0
27	-2	0
7.2691229629021	-0.81067518123216	0
19.49228001846	-0.55155677369638	0
1.2896103362026	-0.65136349644529	0
13.349382868887	-0.64967979764945	0
4.4852300021587	-0.52085666100513	0
6.2528988198678	-0.53654009134171	0
9.3017538899004	-0.66115188575409	0
21.231514881356	-0.76943350901688	0
11.603046225831	-0.66740246079767	0
5.9393631365035	-0.14372852511856	0
8.3458612496307	-0.63155438204734	0
19.621091384387	-0.20825458727401	0
16.330543677457	-0.68338903552654	0
18.128068719993	-0.48283791240847	0
21.210954600846	-0.51642151107655	0
3.372188991926	-0.61955977368042	0
4.1151814780323	-0.66787561979819	0
10.823273084867	-0.63419887533792	0
10.143195314232	-0.63040458825093	0
14.808496031974	-0.79801148567577	0
14.104874032798	-0.6347083692955	0
20.109307838252	-0.16902860808105	0
21.034959009468	-0.57989773150453	0
25.169354542572	-0.51856921508739	0
24.287328143102	-0.66552279685606	0
-0.035286472812387	-0.63487865704259	0
25.214394853998	-0.97298394561847	0
0.1037472465317	-1.1216320019762	0
22.111183072693	-0.69470661818174	0
20.533685933861	-0.50429248524258	0
20.842919054289	-0.41477995110169	0
9.9379713025265	-1.6875320149349	0
4.380193402757	-1.1263537966882	0
3.7861052591074	-0.93532858294514	0
11.128737387814	-0.95225059245052	0
10.467933087202	-0.9928770906747	0
9.8316733787603	-0.94142727296961	0
15.28241669067	-1.1036977109968	0
14.335546216505	-0.97049824796204	0
13.806073758754	-0.9452496083373	0
20.631205953207	-0.21794246212663	0
20.819419408407	-0.81850795126413	0
20.188191062747	-0.48141186515908	0
24.624608238502	-1.1168735539155	0
15.121636064794	-1.9639779805261	0
17.81256083845	-0.6488049954672	0
5.5717851027758	-0.50059239693737	0
5.9005739129226	-0.8087828331584	0
4.6217712882778	-0.1994322221994	0
4.9008892856853	-0.80302825791474	0
17.148988023108	-0.66507916132368	0
20.342572443407	-0.87927795397056	0
21.294085186359	-1.7634916457554	0
11.765765858711	-1.320367373061	0
22.478003461725	-0.53499111152657	0
14.72938542395	-1.2976176553793	0
20.377048853294	-0.22859601799641	0
13.162907131142	-1.3137531926098	0
9.3552387274903	-1.2255995105547	0
22.860997228216	-0.85460138181353	0
19.077451258396	-0.86234088842539	0
19.901052872586	-0.76999755131266	0
20.611237972049	-1.4316827315592	0
23.404755257662	-1.1760839660913	0
21.70993486075	-1.0411051236667	0
22.366817690528	-1.0647374070568	0
16.82224787898	-1.0237799247675	0
17.498607508519	-1.0368569007877	0
18.626641450483	-1.2256062378546	0
19.519260664992	-1.0868887082473	0
18.116270278118	-0.93213025177701	0
22.818963053276	-1.4040258153161	0
16.081056317146	-1.409673743177	0
19.997755724162	-1.2846313771007	0
19.114768548819	-1.3719148211994	0
18.016697391311	-1.6370007445121	0
8.7956446741597	-1.0076354843068	0
1.7417746227799	-1.1985897995675	0
8.0555004254872	-1.2410296355528	0
2.561186845973	-1.291180485885	0
6.5082202742325	-1.1103789250996	0
5.0617819945799	-1.4264946202629	0
14.091852224298	-1.6515817689642	0
22.212152869782	-1.8690941332851	0
19.530095726472	-1.6970250303576	0
3.2466177375226	-1.1742057722601	0
5.7797224320586	-1.4348768999733	0
23.239935782974	-2.0643490897782	0
18.819628377079	-1.9996490462294	0
3.1082054531721	-2.0159681587029	0
4.4937416428657	-1.9615881203324	0
3.8126398511503	-1.5854335033909	0
0.85832832054153	-1.1490002911018	0
24.051458364248	-1.1271975041763	0
21.133624484297	-1.1641470477504	0
8.9077883357305	-1.8240591168019	0
20.078865424798	-1.8554136789408	0
25.642329006643	-0.52242154301345	0
3.8559362193525	-2.3029336805668	0
20.602733377516	-2.2759191250874	0
19.646835380776	-2.5996084191876	0
1.625	-6	0
4.4319210498709	-3.0050821445015	0
-0.57703014557254	-0.72652191981596	0
25.05709652134	-1.7728268990248	0
12.458415547221	-1.1451306703598	0
23.860294917702	-1.650058036729	0
6.3931931184811	-2.0252245647902	0
-2	-1	0
27	-1	0
12.445896596028	-1.8232743049526	0
23.375	-6	0
24.366168880257	-1.5919243180629	0
-1.3598433796084	-0.62899501271716	0
26.023858305288	-1.3340590372874	0
26.333233680486	-0.57128251574243	0
11.66148534139	-2.3448775779448	0
13.190498748341	-2.3702719650861	0
24.234182259491	-2.2947555587833	0
25.011058891091	-2.602578707386	0
17.083655992336	-1.8823446110061	0
2.1878590447703	-2.0555916612259	0
21.474244164614	-2.8236064171612	0
-0.12110587650801	-2.3974088831453	0
-1.2226295589853	-1.4169038998534	0
10.918481592572	-1.637493504459	0
22.565720248395	-2.9324154637278	0
25.312216083088	-3.1941055770371	0
10.544539975848	-2.5202635727425	0
17.955701231674	-2.75776619881	0
13.517664664235	-3.4641136892316	0
1.268870792186	-2.0317669744616	0
23.568818318995	-3.1314957494745	0
-2	-4	0
8.875	-6	0
-0.99816649782797	-2.4719755320906	0
9.5294646227985	-2.6492742300419	0
21.5625	-6	0
-2	-3	0
3.4234625547802	-2.9485419027914	0
7.9506637388237	-3.1827130843586	0
10.20161921769	-4.1949966607848	0
22.011804359107	-3.7205078896505	0
8.6805101913857	-2.7331764185078	0
10.084741932971	-3.3252453780134	0
20.327923366019	-3.9305984766581	0
22.872553236102	-3.990336499606	0
7.9961377258846	-2.210421059683	0
9.015408867063	-3.7892581849324	0
11.126894035552	-3.4604269355078	0
22.019330761008	-4.8412543507505	0
7.229117512357	-1.6680791659069	0
23.962733337816	-4.2571388312599	0
7.1512281050459	-2.6075028811362	0
6.2310505839554	-3.9838234674993	0
7.0574855473861	-3.5578204456225	0
7.0625	-6	0
7.7957494144824	-4.1777093090106	0
6.9341713288227	-4.3922284250939	0
6.1889789000824	-5.1199310340121	0
7.3949572130088	-5.1185637227392	0
7.96875	-6	0
8.4182892138689	-5.018616914952	0
7.6396663605839	-6.6316400950631	0
10.6875	-6	0
20.083192617046	-6.6175821885407	0
-0.99958557836578	-3.7257069034175	0
5.4089543345278	-2.3311376318479	0
-66	0	0
91	0	0
14.286757154006	-2.6963371399386	0
16.125	-6	0
12.389462882531	-3.1976935663342	0
0.39183125608072	-1.8742638102129	0
0.63752516348716	-2.8675516025385	0
20.50065469468	-3.1951693992055	0
19.830792794413	-3.5293509048284	0
18.96127020116	-3.5378575077535	0
19.715390082034	-4.3916137293348	0
25.919200020356	-2.4989680910075	0
9.4583672019443	-5.0223765924956	0
21.901114754333	-8.0704964669458	0
3.9322548283451	-4.9875157348486	0
5.4203896750841	-3.469029222687	0
35	0	0
59	0	0
1.7816923783301	-3.0314999725609	0
17.9375	-6	0
23.097729555356	-5.0607651259957	0
20.65625	-6	0
27	-4	0
24.526887789081	-3.2513305817085	0
25.1875	-6	0
26.028779259856	-3.5887641149795	0
27	-3	0
25.068820448322	-4.0275356864043	0
12.86734954588	-6.82891354908	0
9.78125	-6	0
10.456716363776	-5.127176661945	0
11.551061573505	-5.1163843691754	0
3.7375573837631	-3.8878993508614	0
2.7420213745482	-3.7204153901149	0
4.6676389858212	-4.1354386981379	0
3.4375	-6	0
6.2772684955971	-2.9958829391003	0
-34	0	0
43	0	0
2.6494725765779	-2.7546926648913	0
1.1197025476899	-4.3737076906312	0
18.78872512007	-4.7368337222349	0
22.46875	-6	0
23.883347543623	-6.8458757658435	0
15.754453225888	-6.7985281349368	0
27	-5	0
12.658468175013	-4.9345253930115	0
11.05617094116	-4.4219948839572	0
11.94035445392	-4.2049544192287	0
1.1263503290079	-3.6704752474993	0
0.24276062891838	-3.9631022576437	0
1.837767633215	-4.1056878547737	0
2.53125	-6	0
-0.1875	-6	0
0.65363883404532	-5.0576344765159	0
20.414760372217	-8.8642930294473	0
25.664079608511	-6.9859648569912	0
24.709666928052	-5.0620377657312	0
24.28125	-6	0
25.86985243472	-4.81121004387	0
29	0	0
2.5305391588298	-4.7783437066996	0
8.3346160295413	-6.6727564799633	0
9.2477643105831	-7.2438205024594	0
-0.60073734599856	-4.9508954181208	0
23.885473644208	-5.2759965596236	0
-18	0	0
31	0	0
8.6284340675907	-8.9514655561245	0
3.9282489151639	-6.8103972364235	0
-2	-5	0
-1.09375	-6	0
5.622378791063	-7.3723507474223	0
-0.43670889721418	-7.0738074339048	0
-1.4037289860821	-4.5975203416443	0
19.708320705933	-7.3930374300118	0
20.896256863409	-7.1163399733182	0
-3.9020819062166	-5.5455810317851	0
-10	0	0
-3.1060723036121	-4.1432827439081	0
-6	0	0
28.563841299536	-6.099355119397	0
28	0	0
28.299337389004	-1.3229356180149	0
-2.6855536634796	-3.3352629922227	0
-4	0	0
28.38516563726	-3.5824078375152	0
28.079166027119	-4.7046698009482	0
27.972850730708	-2.4730330638589	0
-2.780354068799	-2.4658616856783	0
-4.5097042386604	-3.9259169626157	0
29.460265691058	-4.8582983588344	0
29.187173751839	-2.4702152092934	0
-3.5440110565223	-3.079343186961	0
-2.8309809418744	-1.4026342519807	0
30.771023927657	-6.4131920498458	0
30.030508318603	-3.6144774452245	0
29.947833333232	-1.3345821894719	0
-5.6247843788171	-2.0881749460145	0
-3	0	0
-3.6254820782197	-1.9937036774485	0
-3.5826056577707	-0.96538580108616	0
-4.5620085331665	-2.6324691844531	0
-4.4587649082904	-1.4385286345583	0
-5.6148406245222	-3.2973806193592	0
-7.0424195605267	-2.970314447386	0
-6.3344073871674	-4.915635845539	0
-5.3602568472614	-0.9616592897328	0
-8	0	0
-0.40370302887206	-1.668492400452	0
6.15625	-6	0
25.610142865867	-8.5402679615941	0
24.778004473826	-7.0597401715151	0
6.915360241213	-8.495027227257	0
22.214787054887	-9.8501292915506	0
23.034241891364	-8.5740165233358	0
12.422694483725	-2.4347268185304	0
15.759488447995	-3.8395294359159	0
-0.24716587811448	-3.0858013680073	0
18.8458778748	-2.7228386874288	0
21.115107770622	-4.0198256686272	0
20.174368010618	-5.2146074830832	0
18.84375	-6	0
11.712625017545	-7.1011925786817	0
22.95077995684	-7.1926983671035	0
0.0075746464098295	-8.4049480751248	0
1.885603034447	-6.9371744861476	0
20.46698403576	-4.5310273386256	0
20.999295792419	-5.1009762360365	0
18.764094784916	-8.2660144845639	0
5.4982446009417	-4.3618924496784	0
4.9803387901224	-5.1008231698794	0
4.34375	-6	0
17.945210457019	-4.0399476594747	0
16.93639831425	-3.5564302006842	0
16.925580223932	-5.0849937470082	0
14.3125	-6	0
12.855313224567	-4.0937062732218	0
16.51279950112	-6.7884787256671	0
26.09375	-6	0
14.756328340517	-7.3519343111444	0
-1.6510786065733	-7.8801792971303	0
6.889564493822	-6.998181286828	0
19.415032724611	-6.5859685846989	0
27.944701563283	-7.4026712601715	0
4.238734126803	-7.8975101452863	0
1.5826464628374	-8.2399236399609	0
7.9423981814749	-7.4980158039048	0
17.683334819717	-12.052225776712	0
1.7167150623511	-5.0528807280372	0
3.1302809566012	-5.2588889102419	0
3.2151259238026	-4.5268283173922	0
-1.4195532159388	-5.3097709296523	0
30.971578582399	-4.7818633625189	0
30.510521417997	-2.5231946049046	0
15.189619073999	-2.973910942221	0
14.602081713225	-3.753502100321	0
16.172902514655	-2.6178402326502	0
13.766562493351	-4.6641262539708	0
13.40625	-6	0
13.046462980077	-8.1839435718604	0
18.69308175194	-6.9217709445582	0
15.087984897872	-4.881976708279	0
13.328889124658	-5.5198386745057	0
0.7460427119802	-7.1087027434457	0
10.434748784661	-6.9914351058537	0
19.454494613071	-5.2684161541451	0
17.037209490615	-2.7029917898341	0
17.03125	-6	0
16.16566025646	-7.86213763339	0
21.955152417399	-6.8752750472033	0
24.090853559493	-9.7934414753064	0
10.751094080969	-8.6241483399503	0
5.2455380191997	-9.4426929662077	0
17.812683498237	-5.1896688429722	0
17.217137323824	-4.4690368576699	0
16.465759663695	-4.4775721998354	0
15.853792098094	-4.6232035641869	0
13.677561285892	-6.8725264469323	0
32.923988260451	-5.5463810536326	0
31.704400581225	-1.708722540573	0
31.701937911488	-3.5106339452547	0
15.21875	-6	0
27.775410952917	-9.220236759896	0
-3.3052120565428	-9.9561102914895	0
-3.6322479692785	-7.6471116874519	0
16.101187433759	-5.2953054746475	0
9.7709711587434	-11.163693527572	0
-1.0633375534494	-10.145216628581	0
23.389926416659	-12.413455008803	0
33.021287403094	-8.881047769787	0
2.9468609128804	-7.3567799193381	0
-6.7192406036781	-1.2932043005977	0
-8.2867682757177	-1.7549647264526	0
33	0	0
18.945405139747	-9.9594470328146	0
-2.2859018547962	-12.66390970125	0
-5.9037346451962	-12.256782406442	0
-9.6618177569716	-4.5398704599117	0
29.746441754939	-8.3764961362334	0
17.361772087809	-9.1968732065578	0
20.546230162714	-11.452475479968	0
34.084573616112	-2.9051530314576	0
15.141852434673	-9.7747223988756	0
-5.7214989365668	-7.2680050055211	0
0.82884798482635	-15.380709779113	0
0.034420415037694	-12.016437869098	0
0.90056894723279	-10.049248523433	0
26.680223653074	-7.357131939296	0
24.056347398256	-7.9996383325322	0
-7.8599639198543	-6.9452362256513	0
26.309192655275	-11.435469526951	0
1.8533887707528	-11.917034077592	0
4.6766350545676	-6.815480356464	0
-7.3619023602991	-9.3612638454361	0
12.459492216128	-10.78219857252	0
37.044110652201	-6.8416245114172	0
-13.767688222754	-7.5715168129132	0
16.706770712084	-15.460974240768	0
12.5	-106	0
3.0369643921566	-9.6337072529237	0
7.1960079642111	-10.760669345536	0
4.5334168457312	-12.579505630927	0
11.550754504962	-13.971726124402	0
39	0	0
14.579265568069	-13.047977866253	0
30.436025447355	-12.271001560547	0
-13.068164782383	-12.20140854835	0
37.238759497709	-2.7534131952828	0
41.075486557526	-4.0341846670043	0
-10.169277760959	-8.7254109571195	0
26.626112024272	-16.425413611105	0
-13.761200635777	-3.5527602775265	0
-18.460629798681	-10.877076787371	0
-5.187786488544	-9.292959202903	0
51	0	0
16.78353024033	-20.430260538865	0
-9.2424205111406	-11.798048364147	0
-17.350563768078	-5.6848261549476	0
17.494745075847	-7.2903296872003	0
-26	0	0
-22.731626250464	-6.4531135307486	0
-29.73837296603	-6.6515709184115	0
-26.780669065241	-15.543612350277	0
5.5318219713042	-17.015387879692	0
8.1686613454829	-14.016035587334	0
14.008341983297	-16.303219862364	0
20.68509586471	-15.612988116778	0
-50	0	0
37.286959892281	-13.91349132756	0
10.523815315362	-18.677992827088	0
-1.3791258566284	-20.776165616602	0
46.461783636986	-4.7243748949082	0
53.531864544765	-9.7122911223865	0
-9.6257108938643	-16.521057457218	0
75	0	0
-39.120397449409	-11.293695210448	0
-4.116947307361	-16.411957573075	0
-6.2131656237064	-20.963515978723	0
-11.622915531637	-24.30226952046	0
-4.1076882331356	-26.93609035528	0
2.8508073801435	-19.990667771094	0
2.9141191035815	-25.263607986964	0
6.583528968251	-21.666131123839	0
11.238136154752	-27.469387827917	0
23.142279206517	-21.105266750729	0
43.734728545188	-9.9217188825045	0
2.5933681959794	-34.914814147546	0
21.547514443963	-28.60747679879	0
30.217062686722	-24.534467085196	0
-16.928355690766	-17.913612707604	0
32.392022921804	-17.723219453125	0
47.049352088917	-20.350101829572	0
37.457775211953	-21.519698478203	0
-10.643056069761	-35.556385479309	0
40.417623469922	-31.134476183007	0
17.978254200689	-42.860962129051	0
-21.919158351302	-28.091069577458	0
30.133736254646	-35.361326990498	0
57.212205064593	-35.436213729842	0
-1.5743118790125	-51.520489748714	0
-38.398264113793	-27.616197061805	0
40.596841834558	-49.725761425968	0
-27.026532754753	-47.664962181804	0
67.705930466878	-12.142289889557	0
59.859438963086	-20.960302366335	0
85.068383348731	-15.055334016858	0
73.839904668872	-27.21569079181	0
-55.748731559999	-17.973153526672	0
21.538510575406	-72.550277413934	0
97.41400433656	-35.605853746012	0
127	-53	0
75.833365910871	-44.160805140116	0
69.75	-106	0
63.051095422607	-54.671039539859	0
127	-26.5	0
-102	-53	0
-59.698202701364	-45.166894095275	0
87.711033486061	-67.936801127375	0
-102	-26.5	0
41.125	-106	0
-44.75	-106	0
105.4956066735	-15.430941063278	0
-81.241972983261	-23.773086806384	0
53.959040473163	-76.145096231323	0
-13.744314291485	-75.637143987929	0
-43.111551037942	-70.102808918897	0
-70.313395640872	-76.053491275594	0
CELLS 1425 5700
3	508	650	611	
3	557	661	552	
3	85	8	238	
3	85	346	318	
3	212	290	87	
3	1	559	566	
3	30	29	128	
3	100	44	43	
3	92	213	291	
3	9	8	85	
3	259	219	251	
3	99	11	10	
3	11	99	123	
3	14	87	104	
3	85	232	9	
3	45	44	86	
3	182	252	253	
3	232	207	9	
3	105	20	19	
3	14	13	87	
3	297	89	240	
3	181	15	250	
3	103	17	16	
3	187	262	263	
3	15	14	104	
3	309	210	241	
3	190	268	269	
3	183	254	255	
3	160	259	336	
3	35	109	129	
3	50	49	92	
3	127	137	369	
3	234	159	21	
3	178	222	58	
3	19	214	105	
3	271	191	169	
3	103	126	17	
3	29	107	128	
3	205	211	118	
3	105	139	108	
3	217	131	244	
3	106	159	234	
3	305	385	349	
3	256	330	25	
3	330	293	26	
3	65	64	229	
3	292	257	161	
3	59	94	115	
3	96	246	278	
3	28	107	29	
3	75	74	133	
3	90	32	31	
3	110	32	90	
3	81	286	201	
3	220	298	109	
3	76	122	77	
3	88	108	234	
3	144	173	312	
3	158	99	307	
3	33	260	186	
3	43	248	100	
3	265	188	166	
3	91	38	37	
3	218	42	101	
3	34	109	35	
3	11	123	12	
3	86	100	135	
3	111	39	38	
3	124	101	41	
3	301	225	86	
3	16	157	219	
3	42	41	101	
3	44	100	86	
3	17	126	18	
3	249	180	156	
3	46	102	47	
3	38	91	111	
3	41	40	124	
3	32	110	33	
3	80	121	134	
3	533	492	671	
3	54	93	227	
3	181	250	251	
3	203	226	46	
3	20	105	88	
3	47	102	125	
3	193	274	275	
3	326	293	258	
3	125	48	47	
3	164	107	309	
3	27	241	208	
3	112	51	50	
3	240	23	297	
3	52	113	53	
3	53	93	54	
3	258	293	330	
3	93	53	113	
3	185	24	240	
3	50	92	112	
3	137	159	106	
3	35	129	36	
3	56	55	114	
3	130	56	114	
3	204	228	55	
3	744	775	490	
3	57	284	200	
3	45	86	225	
3	140	110	90	
3	111	91	141	
3	58	94	59	
3	115	60	59	
3	266	267	189	
3	272	273	192	
3	131	62	61	
3	62	117	63	
3	272	192	51	
3	211	63	117	
3	112	92	142	
3	131	217	117	
3	186	260	261	
3	486	565	510	
3	34	163	220	
3	227	93	303	
3	63	211	205	
3	60	115	242	
3	334	117	217	
3	351	175	230	
3	171	60	242	
3	205	118	64	
3	56	130	57	
3	96	65	229	
3	277	146	230	
3	143	171	243	
3	120	72	71	
3	196	72	276	
3	276	247	299	
3	70	277	71	
3	117	62	131	
3	122	97	77	
3	343	175	351	
3	221	73	174	
3	74	119	133	
3	332	144	312	
3	77	97	78	
3	209	78	236	
3	154	361	195	
3	134	81	80	
3	97	122	147	
3	82	179	223	
3	80	79	121	
3	418	231	239	
3	282	199	75	
3	123	99	158	
3	98	239	83	
3	430	571	3	
3	252	182	12	
3	98	83	82	
3	281	198	176	
3	97	236	78	
3	310	236	97	
3	73	119	74	
3	96	229	246	
3	266	189	39	
3	191	270	52	
3	188	264	40	
3	136	104	87	
3	125	102	170	
3	274	193	48	
3	126	103	160	
3	254	183	18	
3	259	313	400	
3	292	161	185	
3	255	139	214	
3	262	187	30	
3	129	109	167	
3	268	190	36	
3	153	130	114	
3	200	284	285	
3	143	243	245	
3	115	194	242	
3	175	299	247	
3	69	68	342	
3	133	119	177	
3	282	283	199	
3	155	134	121	
3	201	286	287	
3	296	249	218	
3	225	302	226	
3	87	13	212	
3	336	255	160	
3	22	127	162	
3	138	263	321	
3	367	308	288	
3	613	432	531	
3	263	138	215	
3	90	31	215	
3	216	294	91	
3	91	37	216	
3	296	329	249	
3	92	49	213	
3	93	113	168	
3	393	333	304	
3	194	115	94	
3	332	306	132	
3	118	289	229	
3	277	120	71	
3	76	280	122	
3	279	221	174	
3	236	311	237	
3	228	304	114	
3	13	148	212	
3	49	149	213	
3	19	150	214	
3	31	151	215	
3	37	152	216	
3	194	94	300	
3	237	311	121	
3	69	342	197	
3	311	345	155	
3	233	307	99	
3	248	43	180	
3	219	103	16	
3	290	136	87	
3	89	369	325	
3	107	210	309	
3	259	251	313	
3	89	370	308	
3	234	108	106	
3	256	258	330	
3	326	258	368	
3	330	26	25	
3	220	109	34	
3	90	215	138	
3	294	339	141	
3	124	165	101	
3	90	138	140	
3	40	264	124	
3	294	141	91	
3	291	341	142	
3	228	227	304	
3	226	302	102	
3	52	270	113	
3	291	142	92	
3	171	242	243	
3	172	143	245	
3	61	244	131	
3	244	61	172	
3	363	350	377	
3	245	295	217	
3	247	230	175	
3	221	119	73	
3	64	118	229	
3	322	332	312	
3	280	76	198	
3	281	375	147	
3	249	156	218	
3	222	94	58	
3	223	98	82	
3	218	156	42	
3	136	313	251	
3	104	250	15	
3	212	253	290	
3	123	252	12	
3	21	88	234	
3	126	254	18	
3	256	184	257	
3	88	105	108	
3	106	108	325	
3	308	367	292	
3	220	261	298	
3	110	260	33	
3	262	164	263	
3	128	262	30	
3	111	141	266	
3	264	188	265	
3	265	267	314	
3	111	266	39	
3	216	269	294	
3	129	268	36	
3	112	142	272	
3	270	191	271	
3	271	273	315	
3	112	272	51	
3	213	275	291	
3	125	274	48	
3	94	222	300	
3	116	95	342	
3	376	365	358	
3	132	144	332	
3	361	146	195	
3	120	276	72	
3	197	377	154	
3	66	278	173	
3	133	177	282	
3	280	198	281	
3	177	375	283	
3	133	282	75	
3	222	285	300	
3	130	284	57	
3	317	223	287	
3	134	286	81	
3	160	103	259	
3	434	429	445	
3	203	45	225	
3	204	54	227	
3	116	68	67	
3	344	418	239	
3	10	207	233	
3	241	27	293	
3	79	209	237	
3	21	20	88	
3	217	295	366	
3	66	65	96	
3	123	158	252	
3	253	148	182	
3	125	170	274	
3	275	149	193	
3	126	160	254	
3	255	150	183	
3	164	128	107	
3	263	151	187	
3	129	167	268	
3	269	152	190	
3	247	276	120	
3	173	278	312	
3	101	165	296	
3	248	180	249	
3	104	136	250	
3	251	157	181	
3	110	140	260	
3	261	163	186	
3	116	342	68	
3	196	276	279	
3	130	153	284	
3	285	178	200	
3	134	155	286	
3	287	179	201	
3	301	86	135	
3	8	224	238	
3	46	226	102	
3	203	225	226	
3	225	301	302	
3	93	168	303	
3	55	228	114	
3	204	227	228	
3	227	303	304	
3	175	335	299	
3	221	279	145	
3	66	96	278	
3	211	289	118	
3	85	318	232	
3	231	83	239	
3	10	233	99	
3	207	232	233	
3	233	232	307	
3	326	309	241	
3	210	28	208	
3	26	293	27	
3	89	162	369	
3	310	97	147	
3	79	237	121	
3	209	236	237	
3	236	310	311	
3	348	413	318	
3	318	307	232	
3	223	317	98	
3	98	344	239	
3	369	162	127	
3	22	162	297	
3	368	258	367	
3	245	244	172	
3	242	194	243	
3	67	132	306	
3	245	217	244	
3	300	371	194	
3	243	295	245	
3	67	306	116	
3	211	334	289	
3	229	289	246	
3	135	100	248	
3	218	101	296	
3	135	248	249	
3	251	219	157	
3	250	136	251	
3	290	313	136	
3	253	212	148	
3	252	158	253	
3	158	323	253	
3	255	214	150	
3	254	160	255	
3	210	208	241	
3	108	139	337	
3	258	257	367	
3	290	323	398	
3	184	256	25	
3	308	292	240	
3	354	139	336	
3	261	220	163	
3	260	140	261	
3	140	331	261	
3	263	215	151	
3	262	128	164	
3	89	297	162	
3	165	124	264	
3	189	267	166	
3	165	264	265	
3	267	265	166	
3	266	141	267	
3	314	267	141	
3	269	216	152	
3	268	167	269	
3	167	327	269	
3	168	113	270	
3	192	273	169	
3	168	270	271	
3	273	271	169	
3	272	142	273	
3	315	273	142	
3	275	213	149	
3	274	170	275	
3	170	324	275	
3	196	279	174	
3	667	649	629	
3	335	175	343	
3	70	195	146	
3	246	289	381	
3	95	332	322	
3	147	122	280	
3	199	283	176	
3	147	280	281	
3	283	281	176	
3	282	177	283	
3	230	247	120	
3	285	222	178	
3	284	153	285	
3	153	333	285	
3	287	223	179	
3	286	155	287	
3	287	155	345	
3	297	23	22	
3	401	472	321	
3	278	246	312	
3	147	375	380	
3	323	158	307	
3	431	378	426	
3	170	102	302	
3	168	315	340	
3	103	219	259	
3	325	369	106	
3	258	256	257	
3	269	327	294	
3	298	167	109	
3	165	314	338	
3	388	371	387	
3	305	119	221	
3	265	314	165	
3	135	329	301	
3	184	161	257	
3	164	309	321	
3	308	240	89	
3	167	298	327	
3	351	361	350	
3	361	154	377	
3	153	114	304	
3	351	230	146	
3	135	249	329	
3	291	275	324	
3	355	374	329	
3	170	302	324	
3	271	315	168	
3	300	285	333	
3	303	358	304	
3	153	304	333	
3	194	295	243	
3	363	342	95	
3	221	145	305	
3	311	310	384	
3	85	238	346	
3	323	290	253	
3	164	321	263	
3	397	399	416	
3	185	240	292	
3	107	28	210	
3	281	283	375	
3	121	311	155	
3	277	70	146	
3	344	98	317	
3	363	377	342	
3	385	145	328	
3	313	398	400	
3	367	288	368	
3	294	327	357	
3	338	355	296	
3	291	324	360	
3	303	168	340	
3	145	385	305	
3	177	305	349	
3	119	305	177	
3	418	344	347	
3	424	224	202	
3	323	413	398	
3	598	494	348	
3	348	346	424	
3	718	741	527	
3	347	425	435	
3	241	293	326	
3	337	139	354	
3	343	351	362	
3	295	371	388	
3	346	348	318	
3	411	419	423	
3	301	329	374	
3	359	315	341	
3	369	137	106	
3	288	370	402	
3	353	337	354	
3	331	140	138	
3	331	298	261	
3	356	314	339	
3	322	246	381	
3	312	246	322	
3	296	165	338	
3	426	301	374	
3	379	327	397	
3	325	370	89	
3	367	257	292	
3	357	356	339	
3	350	372	362	
3	334	366	391	
3	358	303	340	
3	95	116	306	
3	194	371	295	
3	363	95	382	
3	95	306	332	
3	375	177	349	
3	139	255	336	
3	308	370	288	
3	437	431	374	
3	365	376	403	
3	141	339	314	
3	329	296	355	
3	331	397	298	
3	338	356	355	
3	142	341	315	
3	393	304	358	
3	359	341	360	
3	359	376	340	
3	277	230	120	
3	287	345	317	
3	343	362	328	
3	146	361	351	
3	317	364	347	
3	344	317	347	
3	414	311	384	
3	384	310	380	
3	424	238	224	
3	238	424	346	
3	364	317	345	
3	425	347	364	
3	598	444	494	
3	368	288	407	
3	328	145	335	
3	392	408	384	
3	145	279	299	
3	375	349	386	
3	350	361	377	
3	328	335	343	
3	353	370	325	
3	397	327	298	
3	353	402	370	
3	403	491	365	
3	398	313	290	
3	401	309	326	
3	338	314	356	
3	302	378	324	
3	339	294	357	
3	446	352	449	
3	105	214	139	
3	357	327	379	
3	340	315	359	
3	372	382	394	
3	341	291	360	
3	358	340	376	
3	301	426	302	
3	360	403	359	
3	279	276	299	
3	436	435	430	
3	350	363	372	
3	289	334	391	
3	197	342	377	
3	328	362	415	
3	147	380	310	
3	414	384	427	
3	337	325	108	
3	449	437	446	
3	322	390	382	
3	382	95	322	
3	413	307	318	
3	383	394	417	
3	337	353	325	
3	259	400	406	
3	24	23	240	
3	352	356	357	
3	326	368	401	
3	399	138	321	
3	388	396	391	
3	334	211	117	
3	350	362	351	
3	366	334	217	
3	404	386	385	
3	441	396	388	
3	374	446	437	
3	360	324	378	
3	403	376	359	
3	345	414	364	
3	403	360	378	
3	300	333	387	
3	415	373	385	
3	299	335	145	
3	418	206	231	
3	406	354	336	
3	379	397	416	
3	357	379	352	
3	371	300	387	
3	372	363	382	
3	289	389	381	
3	381	390	322	
3	384	380	392	
3	362	372	383	
3	349	385	386	
3	404	408	392	
3	373	404	385	
3	386	380	375	
3	328	415	385	
3	380	386	392	
3	387	333	393	
3	388	366	295	
3	393	441	387	
3	382	390	394	
3	396	389	391	
3	405	394	390	
3	389	395	381	
3	372	394	383	
3	388	391	366	
3	289	391	389	
3	358	365	393	
3	392	386	404	
3	646	393	365	
3	395	390	381	
3	390	395	405	
3	389	396	409	
3	405	417	394	
3	387	441	388	
3	405	395	409	
3	399	331	138	
3	397	331	399	
3	307	413	323	
3	336	259	406	
3	321	309	401	
3	416	352	379	
3	442	452	507	
3	353	354	412	
3	407	288	402	
3	407	428	401	
3	412	354	406	
3	407	401	368	
3	438	378	431	
3	403	438	491	
3	443	373	420	
3	320	435	500	
3	395	389	409	
3	417	420	383	
3	398	442	400	
3	406	410	412	
3	402	353	411	
3	488	407	402	
3	443	447	404	
3	440	425	439	
3	365	644	646	
3	421	420	417	
3	488	402	411	
3	406	400	410	
3	419	411	412	
3	411	423	488	
3	419	412	410	
3	353	412	411	
3	572	586	549	
3	658	728	627	
3	311	414	345	
3	427	384	408	
3	362	383	415	
3	383	373	415	
3	472	401	428	
3	558	702	621	
3	421	405	409	
3	373	383	420	
3	436	3	206	
3	436	206	418	
3	528	410	442	
3	460	419	410	
3	417	405	421	
3	373	443	404	
3	441	450	396	
3	671	625	629	
3	400	442	410	
3	507	452	495	
3	460	423	419	
3	469	461	478	
3	434	445	424	
3	434	0	429	
3	439	425	433	
3	433	414	427	
3	431	426	374	
3	378	302	426	
3	447	463	467	
3	414	433	364	
3	523	619	504	
3	457	449	352	
3	202	434	424	
3	770	745	777	
3	418	347	435	
3	691	683	669	
3	446	374	355	
3	605	431	437	
3	447	467	453	
3	435	425	500	
3	439	433	427	
3	425	364	433	
3	0	434	202	
3	429	319	445	
3	448	500	440	
3	320	430	435	
3	435	436	418	
3	3	436	430	
3	464	457	416	
3	438	403	378	
3	493	470	537	
3	491	644	365	
3	408	439	427	
3	453	467	473	
3	439	408	453	
3	440	500	425	
3	606	644	645	
3	396	450	409	
3	413	452	398	
3	398	452	442	
3	421	497	496	
3	449	457	465	
3	445	319	456	
3	495	444	607	
3	456	444	598	
3	445	598	424	
3	355	356	446	
3	352	446	356	
3	625	667	629	
3	669	586	643	
3	453	512	439	
3	516	512	473	
3	416	457	352	
3	465	470	449	
3	498	499	497	
3	606	646	644	
3	645	644	491	
3	466	496	497	
3	413	494	452	
3	456	459	487	
3	447	408	404	
3	453	408	447	
3	523	521	503	
3	459	573	454	
3	472	474	468	
3	447	443	463	
3	543	529	539	
3	454	487	459	
3	468	464	416	
3	457	469	465	
3	443	420	496	
3	554	546	473	
3	456	319	459	
3	636	552	551	
3	460	521	423	
3	456	487	607	
3	474	476	461	
3	469	462	465	
3	612	485	654	
3	470	437	449	
3	443	496	609	
3	616	609	466	
3	468	416	399	
3	464	461	469	
3	469	457	464	
3	465	462	470	
3	608	409	450	
3	616	499	610	
3	609	471	463	
3	471	467	463	
3	472	468	399	
3	461	464	468	
3	478	461	476	
3	455	501	483	
3	519	462	501	
3	451	491	438	
3	509	531	432	
3	473	467	509	
3	472	399	321	
3	474	472	428	
3	514	516	548	
3	448	440	512	
3	504	525	488	
3	468	474	461	
3	481	483	478	
3	476	474	525	
3	525	474	428	
3	479	478	476	
3	481	480	477	
3	680	541	615	
3	479	476	475	
3	482	483	481	
3	480	479	475	
3	481	479	480	
3	525	504	475	
3	477	480	599	
3	482	455	483	
3	478	479	481	
3	481	477	482	
3	558	524	680	
3	519	501	518	
3	469	478	483	
3	728	650	508	
3	517	649	667	
3	485	520	519	
3	501	469	483	
3	698	660	600	
3	482	477	484	
3	495	452	494	
3	568	566	559	
3	488	423	504	
3	428	407	488	
3	438	493	451	
3	722	730	732	
3	572	430	320	
3	611	650	632	
3	605	438	431	
3	611	316	655	
3	437	470	493	
3	520	537	536	
3	495	494	444	
3	348	494	413	
3	539	529	538	
3	528	460	410	
3	421	496	420	
3	496	466	609	
3	421	409	608	
3	497	421	498	
3	508	611	663	
3	497	499	466	
3	498	622	530	
3	616	610	617	
3	500	514	515	
3	500	448	514	
3	519	518	485	
3	469	501	462	
3	562	542	560	
3	650	564	632	
3	460	522	521	
3	621	620	503	
3	523	423	521	
3	423	523	504	
3	593	595	579	
3	534	576	511	
3	495	538	507	
3	534	2	570	
3	654	485	518	
3	498	530	499	
3	602	561	662	
3	467	471	509	
3	531	471	458	
3	486	510	316	
3	616	617	609	
3	440	439	512	
3	611	632	316	
3	473	512	453	
3	516	514	448	
3	515	320	500	
3	458	510	565	
3	516	448	512	
3	473	546	516	
3	514	511	515	
3	638	540	529	
3	546	548	516	
3	580	584	642	
3	653	422	542	
3	668	679	705	
3	501	455	518	
3	561	631	599	
3	520	485	84	
3	462	519	536	
3	520	84	535	
3	520	535	537	
3	460	528	522	
3	680	524	541	
3	507	538	540	
3	620	621	235	
3	550	522	540	
3	475	619	480	
3	640	521	522	
3	620	480	619	
3	476	525	475	
3	488	525	428	
3	578	459	319	
3	539	538	495	
3	442	507	528	
3	576	534	570	
3	522	528	507	
3	495	607	539	
3	541	550	638	
3	622	498	450	
3	655	316	610	
3	471	531	509	
3	545	601	600	
3	604	603	660	
3	634	561	702	
3	564	618	544	
3	601	545	513	
3	514	548	511	
3	628	2	534	
3	651	606	645	
3	493	626	451	
3	462	536	470	
3	519	520	536	
3	537	535	626	
3	470	536	537	
3	542	543	553	
3	540	538	529	
3	422	638	543	
3	540	638	550	
3	507	540	522	
3	639	524	503	
3	639	640	550	
3	539	553	543	
3	674	1	566	
3	553	539	487	
3	422	543	542	
3	84	517	648	
3	688	570	633	
3	618	650	728	
3	654	518	552	
3	509	554	473	
3	534	548	628	
3	554	432	547	
3	513	546	547	
3	513	548	546	
3	548	534	511	
3	584	580	570	
3	582	568	573	
3	631	636	484	
3	541	524	639	
3	561	634	662	
3	680	635	709	
3	235	561	599	
3	563	487	454	
3	560	542	553	
3	432	554	509	
3	546	554	547	
3	549	571	572	
3	559	563	454	
3	1	630	560	
3	320	515	577	
3	562	614	653	
3	621	702	235	
3	524	558	621	
3	559	641	563	
3	641	1	560	
3	641	560	553	
3	542	562	653	
3	454	568	559	
3	502	613	659	
3	699	703	693	
3	562	560	630	
3	532	547	432	
3	553	487	563	
3	649	661	704	
3	562	630	614	
3	564	565	486	
3	566	579	595	
3	630	1	674	
3	547	601	513	
3	566	568	579	
3	573	568	454	
3	578	589	582	
3	505	683	691	
3	572	571	430	
3	575	515	511	
3	320	577	572	
3	574	590	588	
3	573	578	582	
3	582	579	568	
3	459	578	573	
3	575	576	580	
3	572	577	581	
3	580	576	570	
3	575	511	576	
3	515	575	577	
3	581	577	575	
3	583	319	429	
3	578	319	583	
3	579	582	591	
3	593	594	595	
3	585	575	580	
3	581	575	585	
3	549	586	556	
3	589	578	583	
3	569	597	681	
3	588	429	0	
3	589	592	591	
3	628	513	545	
3	697	2	628	
3	585	580	642	
3	643	586	581	
3	572	581	586	
3	643	581	585	
3	681	587	596	
3	579	591	593	
3	590	589	583	
3	429	588	583	
3	589	590	592	
3	588	590	583	
3	569	596	574	
3	591	587	593	
3	582	589	591	
3	592	590	574	
3	587	591	592	
3	596	569	681	
3	587	594	593	
3	567	687	682	
3	687	594	682	
3	544	684	690	
3	595	693	566	
3	587	592	596	
3	574	596	592	
3	682	594	681	
3	681	594	587	
3	424	598	348	
3	456	598	445	
3	480	235	599	
3	564	650	618	
3	557	602	710	
3	502	603	604	
3	564	544	565	
3	658	689	728	
3	661	654	552	
3	601	698	600	
3	603	678	660	
3	699	687	719	
3	680	709	634	
3	693	723	674	
3	437	493	605	
3	438	605	493	
3	451	647	645	
3	664	663	622	
3	456	607	444	
3	539	607	487	
3	450	498	608	
3	421	608	498	
3	609	463	443	
3	499	616	466	
3	655	499	530	
3	610	316	510	
3	663	611	530	
3	517	667	648	
3	502	659	565	
3	551	484	636	
3	636	602	557	
3	671	629	533	
3	711	710	662	
3	531	458	659	
3	728	657	627	
3	486	632	564	
3	510	617	610	
3	458	617	510	
3	458	471	617	
3	609	617	471	
3	502	565	544	
3	545	600	697	
3	504	619	475	
3	620	619	523	
3	503	620	523	
3	235	480	620	
3	503	524	621	
3	422	615	541	
3	450	623	622	
3	508	663	657	
3	656	623	450	
3	665	606	666	
3	622	623	664	
3	664	623	665	
3	625	647	652	
3	552	518	455	
3	537	626	493	
3	647	626	535	
3	561	235	702	
3	633	697	672	
3	548	513	628	
3	551	552	455	
3	458	565	659	
3	697	628	545	
3	612	517	84	
3	657	728	508	
3	532	601	547	
3	698	613	604	
3	700	600	660	
3	692	658	629	
3	649	692	629	
3	570	2	633	
3	613	531	659	
3	649	612	661	
3	636	557	552	
3	691	668	705	
3	602	631	561	
3	635	653	614	
3	676	704	661	
3	704	692	649	
3	543	638	529	
3	541	638	422	
3	640	639	503	
3	541	639	550	
3	521	640	503	
3	550	640	522	
3	563	641	553	
3	1	641	559	
3	668	642	584	
3	668	670	642	
3	670	585	642	
3	556	586	669	
3	645	491	451	
3	646	606	623	
3	451	626	647	
3	645	647	651	
3	656	646	623	
3	393	646	441	
3	652	84	648	
3	647	625	651	
3	535	652	647	
3	316	632	486	
3	728	689	618	
3	658	533	629	
3	612	654	661	
3	658	627	533	
3	492	675	671	
3	675	665	666	
3	84	652	535	
3	625	652	648	
3	532	613	698	
3	698	604	660	
3	634	702	558	
3	533	627	492	
3	499	655	610	
3	530	611	655	
3	450	441	656	
3	646	656	441	
3	675	657	624	
3	599	631	477	
3	692	637	689	
3	688	584	570	
3	649	517	612	
3	482	484	551	
3	477	631	484	
3	612	84	485	
3	566	693	674	
3	700	672	600	
3	710	602	662	
3	613	502	604	
3	622	663	530	
3	657	663	624	
3	665	623	606	
3	663	664	624	
3	666	606	651	
3	624	664	665	
3	675	651	671	
3	666	651	675	
3	679	738	705	
3	676	557	710	
3	633	2	697	
3	688	633	672	
3	643	585	670	
3	683	556	669	
3	670	668	691	
3	669	643	670	
3	651	625	671	
3	615	422	653	
3	557	676	661	
3	637	684	689	
3	695	701	696	
3	711	701	694	
3	690	637	736	
3	678	700	660	
3	657	675	492	
3	665	675	624	
3	618	684	544	
3	603	502	544	
3	712	714	704	
3	692	714	637	
3	678	603	690	
3	694	695	685	
3	603	544	690	
3	734	712	676	
3	595	594	687	
3	432	613	532	
3	682	681	597	
3	597	567	682	
3	555	721	567	
3	692	689	658	
3	691	669	670	
3	686	746	685	
3	696	677	695	
3	688	715	679	
3	743	686	726	
3	694	733	711	
3	635	615	653	
3	615	635	680	
3	630	674	673	
3	704	676	712	
3	711	662	709	
3	614	696	635	
3	709	662	634	
3	710	734	676	
3	584	679	668	
3	717	713	505	
3	673	686	685	
3	719	726	703	
3	687	699	595	
3	595	699	693	
3	710	711	734	
3	693	703	723	
3	677	685	695	
3	677	696	614	
3	740	694	746	
3	679	584	688	
3	551	455	482	
3	717	505	691	
3	674	723	673	
3	636	631	602	
3	721	687	567	
3	634	558	680	
3	755	741	718	
3	700	678	720	
3	765	756	769	
3	712	735	714	
3	703	699	719	
3	719	687	706	
3	723	703	686	
3	637	707	736	
3	700	720	715	
3	695	694	701	
3	679	715	738	
3	713	718	527	
3	727	555	730	
3	706	721	727	
3	712	734	739	
3	667	625	648	
3	677	630	673	
3	637	690	684	
3	716	722	759	
3	677	614	630	
3	711	709	701	
3	618	689	684	
3	673	723	686	
3	707	735	725	
3	716	719	706	
3	754	736	725	
3	747	749	740	
3	713	717	718	
3	742	506	724	
3	701	709	696	
3	685	677	673	
3	743	759	748	
3	736	678	690	
3	691	705	717	
3	717	705	718	
3	698	601	532	
3	738	755	705	
3	706	722	716	
3	734	711	733	
3	707	714	735	
3	736	707	725	
3	727	721	555	
3	706	687	721	
3	730	731	732	
3	709	635	696	
3	747	743	748	
3	492	627	657	
3	600	672	697	
3	741	742	724	
3	761	755	738	
3	715	760	738	
3	739	735	712	
3	686	703	726	
3	727	730	722	
3	706	727	722	
3	692	704	714	
3	527	741	724	
3	526	731	729	
3	555	729	730	
3	730	729	731	
3	777	737	489	
3	720	678	736	
3	732	770	766	
3	745	526	737	
3	739	725	735	
3	739	734	733	
3	745	731	526	
3	686	743	746	
3	733	694	750	
3	743	726	716	
3	719	716	726	
3	742	773	506	
3	731	745	732	
3	732	766	759	
3	685	746	694	
3	751	750	740	
3	747	740	746	
3	753	757	725	
3	694	740	750	
3	761	768	774	
3	755	718	705	
3	700	715	672	
3	744	506	773	
3	736	754	720	
3	637	714	707	
3	758	760	720	
3	742	774	773	
3	715	688	672	
3	759	743	716	
3	747	746	743	
3	747	748	749	
3	766	763	748	
3	752	750	751	
3	749	763	756	
3	753	725	739	
3	751	740	749	
3	733	750	752	
3	751	756	753	
3	733	752	739	
3	753	752	751	
3	739	752	753	
3	756	751	749	
3	758	754	757	
3	754	725	757	
3	720	754	758	
3	760	762	738	
3	742	741	755	
3	763	749	748	
3	753	765	757	
3	765	753	756	
3	764	761	762	
3	765	767	757	
3	761	742	755	
3	722	732	759	
3	745	770	732	
3	720	760	715	
3	738	762	761	
3	757	767	758	
3	761	764	768	
3	760	758	762	
3	764	762	758	
3	766	748	759	
3	772	794	769	
3	793	787	783	
3	775	744	773	
3	769	756	763	
3	767	764	758	
3	737	777	745	
3	770	772	766	
3	765	769	778	
3	767	765	771	
3	771	764	767	
3	490	791	6	
3	763	766	772	
3	765	778	771	
3	4	792	489	
3	772	769	763	
3	7	780	787	
3	768	764	771	
3	786	770	777	
3	778	769	794	
3	776	773	774	
3	761	774	742	
3	776	774	768	
3	787	780	779	
3	779	775	776	
3	768	781	776	
3	773	776	775	
3	795	794	772	
3	786	772	770	
3	786	795	772	
3	793	782	787	
3	784	791	779	
3	768	783	781	
3	779	776	781	
3	779	780	784	
3	789	793	778	
3	771	783	768	
3	781	783	787	
3	771	793	783	
3	781	787	779	
3	779	791	775	
3	791	490	775	
3	489	792	777	
3	792	4	788	
3	786	796	795	
3	786	792	785	
3	7	787	782	
3	786	777	792	
3	778	708	789	
3	778	793	771	
3	796	790	795	
3	708	778	794	
3	6	791	784	
3	792	788	785	
3	782	793	789	
3	786	785	796	
3	790	708	794	
3	794	795	790	
3	785	5	796	
3	790	796	5	
CELL_TYPES 1425
5 5 5 5 5 5 5 5 5 5 5 5 5 5 5 5 5 5 5 5 5 5 5 5 5 5 5 5 5 5 5 5 5 5 5 5 5 5 5 5 5 5 5 5 5 5 5 5 5 5 5 5 5 5 5 5 5 5 5 5 5 5 5 5 5 5 5 5 5 5 5 5 5 5 5 5 5 5 5 5 5 5 5 5 5 5 5 5 5 5 5 5 5 5 5 5 5 5 5 5 5 5 5 5 5 5 5 5 5 5 5 5 5 5 5 5 5 5 5 5 5 5 5 5 5 5 5 5 5 5 5 5 5 5 5 5 5 5 5 5 5 5 5 5 5 5 5 5 5 5 5 5 5 5 5 5 5 5 5 5 5 5 5 5 5 5 5 5 5 5 5 5 5 5 5 5 5 5 5 5 5 5 5 5 5 5 5 5 5 5 5 5 5 5 5 5 5 5 5 5 5 5 5 5 5 5 5 5 5 5 5 5 5 5 5 5 5 5 5 5 5 5 5 5 5 5 5 5 5 5 5 5 5 5 5 5 5 5 5 5 5 5 5 5 5 5 5 5 5 5 5 5 5 5 5 5 5 5 5 5 5 5 5 5 5 5 5 5 5 5 5 5 5 5 5 5 5 5 5 5 5 5 5 5 5 5 5 5 5 5 5 5 5 5 5 5 5 5 5 5 5 5 5 5 5 5 5 5 5 5 5 5 5 5 5 5 5 5 5 5 5 5 5 5 5 5 5 5 5 5 5 5 5 5 5 5 5 5 5 5 5 5 5 5 5 5 5 5 5 5 5 5 5 5 5 5 5 5 5 5 5 5 5 5 5 5 5 5 5 5 5 5 5 5 5 5 5 5 5 5 5 5 5 5 5 5 5 5 5 5 5 5 5 5 5 5 5 5 5 5 5 5 5 5 5 5 5 5 5 5 5 5 5 5 5 5 5 5 5 5 5 5 5 5 5 5 5 5 5 5 5 5 5 5 5 5 5 5 5 5 5 5 5 5 5 5 5 5 5 5 5 5 5 5 5 5 5 5 5 5 5 5 5 5 5 5 5 5 5 5 5 5 5 5 5 5 5 5 5 5 5 5 5 5 5 5 5 5 5 5 5 5 5 5 5 5 5 5 5 5 5 5 5 5 5 5 5 5 5 5 5 5 5 5 5 5 5 5 5 5 5 5 5 5 5 5 5 5 5 5 5 5 5 5 5 5 5 5 5 5 5 5 5 5 5 5 5 5 5 5 5 5 5 5 5 5 5 5 5 5 5 5 5 5 5 5 5 5 5 5 5 5 5 5 5 5 5 5 5 5 5 5 5 5 5 5 5 5 5 5 5 5 5 5 5 5 5 5 5 5 5 5 5 5 5 5 5 5 5 5 5 5 5 5 5 5 5 5 5 5 5 5 5 5 5 5 5 5 5 5 5 5 5 5 5 5 5 5 5 5 5 5 5 5 5 5 5 5 5 5 5 5 5 5 5 5 5 5 5 5 5 5 5 5 5 5 5 5 5 5 5 5 5 5 5 5 5 5 5 5 5 5 5 5 5 5 5 5 5 5 5 5 5 5 5 5 5 5 5 5 5 5 5 5 5 5 5 5 5 5 5 5 5 5 5 5 5 5 5 5 5 5 5 5 5 5 5 5 5 5 5 5 5 5 5 5 5 5 5 5 5 5 5 5 5 5 5 5 5 5 5 5 5 5 5 5 5 5 5 5 5 5 5 5 5 5 5 5 5 5 5 5 5 5 5 5 5 5 5 5 5 5 5 5 5 5 5 5 5 5 5 5 5 5 5 5 5 5 5 5 5 5 5 5 5 5 5 5 5 5 5 5 5 5 5 5 5 5 5 5 5 5 5 5 5 5 5 5 5 5 5 5 5 5 5 5 5 5 5 5 5 5 5 5 5 5 5 5 5 5 5 5 5 5 5 5 5 5 5 5 5 5 5 5 5 5 5 5 5 5 5 5 5 5 5 5 5 5 5 5 5 5 5 5 5 5 5 5 5 5 5 5 5 5 5 5 5 5 5 5 5 5 5 5 5 5 5 5 5 5 5 5 5 5 5 5 5 5 5 5 5 5 5 5 5 5 5 5 5 5 5 5 5 5 5 5 5 5 5 5 5 5 5 5 5 5 5 5 5 5 5 5 5 5 5 5 5 5 5 5 5 5 5 5 5 5 5 5 5 5 5 5 5 5 5 5 5 5 5 5 5 5 5 5 5 5 5 5 5 5 5 5 5 5 5 5 5 5 5 5 5 5 5 5 5 5 5 5 5 5 5 5 5 5 5 5 5 5 5 5 5 5 5 5 5 5 5 5 5 5 5 5 5 5 5 5 5 5 5 5 5 5 5 5 5 5 5 5 5 5 5 5 5 5 5 5 5 5 5 5 5 5 5 5 5 5 5 5 5 5 5 5 5 5 5 5 5 5 5 5 5 5 5 5 5 5 5 5 5 5 5 5 5 5 5 5 5 5 5 5 5 5 5 5 5 5 5 5 5 5 5 5 5 5 5 5 5 5 5 5 5 5 5 5 5 5 5 5 5 5 5 5 5 5 5 5 5 5 5 5 5 5 5 5 5 5 5 5 5 5 5 5 5 5 5 5 5 5 5 5 5 5 5 5 5 5 5 5 5 5 5 5 5 5 5 5 5 5 5 5 5 5 5 5 5 5 5 5 5 5 5 5 5 5 5 5 5 5 5 5 5 5 5 5 5 5 5 5 5 5 5 5 5 5 5 5 5 5 5 5 5 5 5 5 5 5 5 5 5 5 5 5 5 5 5 5 5 5 5 5 5 5 5 5 5 5 5 5 5 5 5 5 5 5 5 5 5 5 5 5 5 5 5 5 5 5 5 5 5 5 5 5 5 5 5 5 5 5 5 5 5 5 5 5 5 5 5 5 5 5 5 5 5 5 5 5 5 5 5 5 5 5 5 5 5 5 5 5 5 5 5 5 5 5 5 5 5 5 5 5 5 5 5 5 5 5 5 5 5 5 5 5 5 5 5 5 5 5 5 5 5 5 5 5 5 5 5 5 5 5 5 5 5 5 5 5 5 5 5 5 5 5 5 5 5 5 5 5 5 5 5 5 5 5 5 5 5 5 5 5 5 5 5 5 5 5 5 5 5 5 5 5 5 5 5 5 5 5 5 5 5 5 5 5 5 5 5 5 5 5 5 5 5 5 5 5 5 5 5 5 5 5 5 5 5 
CELL_DATA 1425
SCALARS Marker double 1
LOOKUP_TABLE default
1 1 2 2 2 1 2 2 2 2 2 2 2 2 2 2 2 2 2 2 2 2 2 2 2 2 2 2 2 2 2 2 2 2 2 2 2 2 2 2 2 2 2 2 2 2 2 2 2 2 2 2 2 2 2 2 2 2 2 2 2 2 2 2 2 2 2 2 2 2 2 2 2 2 2 2 2 2 2 2 1 2 2 2 2 2 2 2 2 2 2 2 2 2 2 2 2 2 2 2 2 2 2 2 1 2 2 2 2 2 2 2 2 2 2 2 2 2 2 2 1 2 2 2 2 2 2 2 2 2 2 2 2 2 2 2 2 2 2 2 2 2 2 2 2 2 2 2 2 2 2 2 2 2 1 2 2 2 2 2 2 2 2 2 2 2 2 2 2 2 2 2 2 2 2 2 2 2 2 2 2 2 2 2 2 2 2 2 2 2 2 2 2 1 2 2 2 2 2 2 2 2 2 2 2 2 2 2 2 2 2 2 2 2 2 2 2 2 2 2 2 2 2 2 2 2 2 2 2 2 2 2 2 2 2 2 2 2 2 2 2 2 2 2 2 2 2 2 2 2 2 2 2 2 2 2 2 2 2 2 2 2 2 2 2 2 2 2 2 2 2 2 2 2 2 2 2 2 2 2 2 2 2 2 2 2 2 2 2 2 2 2 2 2 2 2 2 2 2 2 2 2 2 2 2 2 2 2 2 2 2 2 2 2 2 2 2 2 2 2 2 2 2 2 2 2 2 2 2 2 2 2 2 2 2 2 2 2 2 2 2 2 2 2 2 2 2 2 2 2 2 2 2 2 2 2 2 2 2 2 2 2 2 2 2 2 2 2 2 2 2 2 2 2 2 2 2 2 2 2 2 2 2 2 2 2 2 2 2 2 2 2 2 2 2 2 2 2 2 2 2 2 2 2 2 2 2 2 2 2 2 2 2 2 2 2 2 2 2 2 2 2 1 2 2 2 2 2 2 2 2 2 2 2 2 2 2 2 2 2 2 2 2 2 2 2 2 2 2 2 2 2 2 2 2 2 2 2 2 2 2 2 2 2 2 2 2 2 2 2 2 2 2 2 2 2 2 2 2 2 2 2 2 2 2 2 2 2 2 2 2 2 2 2 2 2 2 2 2 2 2 2 2 1 2 2 2 2 2 2 2 2 2 2 2 2 2 2 2 2 2 2 2 2 2 2 2 2 2 2 2 2 2 2 2 2 2 2 2 2 2 2 2 2 2 2 2 2 2 2 2 2 2 2 2 2 2 2 2 2 2 2 2 2 2 2 2 2 2 2 2 2 2 2 2 2 2 2 2 2 2 2 2 2 2 2 2 2 2 2 2 2 2 2 2 2 2 2 2 2 2 2 2 2 2 2 2 2 2 2 2 2 2 2 2 2 2 2 2 2 2 2 2 2 2 2 2 2 2 2 2 2 2 2 2 2 2 2 2 2 2 2 2 2 2 2 2 2 2 2 2 2 2 2 2 2 2 2 2 2 2 2 2 2 2 2 2 2 2 2 2 2 2 2 2 2 2 2 2 2 2 2 2 2 2 2 1 1 2 2 2 2 2 1 2 2 2 2 2 2 2 2 2 1 2 2 2 2 2 2 2 2 2 2 2 2 2 2 2 1 2 1 2 2 2 2 2 2 2 2 2 2 2 2 2 2 2 2 2 2 2 2 2 2 2 2 2 2 2 2 2 2 2 2 1 1 2 2 2 2 2 2 2 2 2 2 2 2 2 1 2 2 2 2 2 2 2 2 2 1 2 2 2 2 1 2 2 2 2 2 2 2 2 2 2 2 2 2 2 2 2 2 2 2 2 2 2 2 2 2 2 2 2 2 2 1 2 2 2 2 2 2 2 2 2 1 2 2 1 1 2 2 1 1 2 1 2 2 2 1 1 1 2 2 2 2 2 2 2 2 2 2 2 2 2 2 2 2 2 2 2 2 1 1 2 2 2 2 1 1 2 1 1 2 1 2 2 1 2 2 1 2 2 2 1 2 2 2 2 2 1 1 1 2 1 2 2 2 2 2 1 2 2 2 2 2 2 2 2 1 2 2 1 2 2 2 2 2 2 1 1 1 1 1 2 2 2 2 2 2 2 2 2 2 2 2 2 2 2 2 1 2 2 1 1 1 1 2 2 2 2 2 2 1 1 1 2 1 1 1 2 2 2 2 1 2 1 1 1 1 1 2 2 2 1 1 1 1 1 1 2 1 1 1 1 1 1 1 1 1 1 1 1 1 1 1 1 1 1 1 1 1 1 1 1 1 1 1 1 1 1 1 1 1 1 1 1 1 1 1 1 1 1 1 1 1 1 1 1 1 1 1 1 1 1 1 1 1 1 1 1 1 2 2 2 1 1 1 1 1 1 1 1 1 1 1 2 2 2 2 2 2 2 2 2 2 2 2 2 1 1 1 1 1 1 1 1 1 2 2 2 2 1 1 2 2 2 2 2 1 2 2 2 2 2 2 2 1 2 2 1 1 2 1 1 1 1 1 1 1 1 1 1 1 1 1 1 1 1 1 1 1 2 2 2 2 2 2 2 2 1 1 1 1 2 2 2 2 2 2 2 2 2 1 1 1 1 1 2 2 2 2 1 1 1 1 2 2 2 2 2 1 1 1 1 1 1 1 1 1 1 1 2 2 2 2 2 2 2 2 1 1 1 1 1 1 1 1 2 1 1 1 1 1 1 1 2 2 1 1 1 1 1 1 1 1 1 1 1 1 1 1 1 1 1 1 1 1 1 1 1 1 1 1 1 1 1 1 1 1 1 1 1 1 1 1 1 1 1 1 1 1 1 1 1 1 1 1 1 1 1 1 1 1 1 1 1 1 1 1 1 1 1 1 1 1 1 1 1 1 1 1 1 1 1 1 1 1 1 1 1 1 1 1 1 1 1 1 1 1 1 1 1 1 1 1 1 1 1 1 1 1 1 1 1 1 1 1 1 1 1 1 1 1 1 1 1 1 1 1 1 1 1 1 1 1 1 1 1 1 1 1 1 1 1 1 1 1 1 1 1 1 1 1 1 1 1 1 1 1 1 1 1 1 1 1 1 1 1 1 1 1 1 1 1 1 1 1 1 1 1 1 1 1 1 1 1 1 1 1 1 1 1 1 1 1 1 1 1 1 1 1 1 1 1 1 1 1 1 1 1 1 1 1 1 1 1 1 1 1 1 1 1 1 1 1 1 1 1 1 1 1 1 1 1 
